<?xml version="1.0" encoding="utf-8"?>
<!-- Generator: Adobe Illustrator 21.1.0, SVG Export Plug-In . SVG Version: 6.00 Build 0)  -->
<svg version="1.1" id="ARTROAN" xmlns="http://www.w3.org/2000/svg" xmlns:xlink="http://www.w3.org/1999/xlink" x="0px" y="0px"
	 width="403.7px" height="67.2px" viewBox="0 0 403.7 67.2" enable-background="new 0 0 403.7 67.2" xml:space="preserve">
<g>
	<path d="M25.9,7.1c0.4-0.9,1.4-1.6,2.4-1.6h10.8c1,0,2,0.6,2.4,1.6l21.4,53c0.3,0.7-0.2,1.6-1.1,1.6H49.6c-1,0-1.9-0.6-2.3-1.6
		l-2-5.3c-0.3-0.8-1.1-1.4-1.9-1.4H24.1c-0.9,0-1.7,0.6-1.9,1.4l-2,5.3c-0.4,0.9-1.3,1.6-2.3,1.6H5.6c-0.9,0-1.4-0.9-1.1-1.6
		L25.9,7.1z M38.4,40.4c0.7,0,1.2-0.7,0.9-1.4l-5.1-13.8c-0.1-0.5-0.9-0.5-1,0L28,39.1c-0.2,0.6,0.2,1.4,0.9,1.4H38.4z"/>
	<path d="M67.8,7.2c0-0.9,0.8-1.7,1.7-1.7h25.7c14.4,0,21,9.4,21,20.5c0,7.4-3.1,14.3-9.8,18c-0.7,0.4-0.9,1.2-0.4,1.9l10.3,14.3
		c0.4,0.6,0,1.4-0.7,1.4h-13.8c-1.1,0-2.1-0.6-2.7-1.4l-8.8-12.5c-0.5-0.7-1.4-1.2-2.3-1.2h-4.5c-0.8,0-1.4,0.6-1.4,1.4V60
		c0,0.9-0.8,1.7-1.7,1.7H69.6c-0.9,0-1.7-0.8-1.7-1.7V7.2z M94.5,18.6H83.6c-0.8,0-1.4,0.6-1.4,1.4v12.1c0,0.8,0.6,1.4,1.4,1.4h10.9
		c5.8,0,7.9-3.5,7.9-7.4C102.4,21.9,100.3,18.6,94.5,18.6z"/>
	<path d="M120.6,19.5c-0.9,0-1.7-0.8-1.7-1.7V7.2c0-0.9,0.8-1.7,1.7-1.7h45.9c0.9,0,1.7,0.8,1.7,1.7v10.5c0,0.9-0.8,1.7-1.7,1.7
		h-14.3c-0.8,0-1.4,0.6-1.4,1.4v39c0,0.9-0.8,1.7-1.7,1.7h-10.9c-0.9,0-1.7-0.8-1.7-1.7v-39c0-0.8-0.6-1.4-1.4-1.4H120.6z"/>
	<path d="M173.5,7.2c0-0.9,0.8-1.7,1.7-1.7h25.7c14.4,0,21,9.4,21,20.5c0,7.4-3.1,14.3-9.8,18c-0.7,0.4-0.9,1.2-0.4,1.9L222,60.2
		c0.4,0.6,0,1.4-0.7,1.4h-13.8c-1.1,0-2.1-0.6-2.7-1.4L196,47.8c-0.5-0.7-1.4-1.2-2.3-1.2h-4.5c-0.8,0-1.4,0.6-1.4,1.4V60
		c0,0.9-0.8,1.7-1.7,1.7h-10.9c-0.9,0-1.7-0.8-1.7-1.7V7.2z M200.1,18.6h-10.9c-0.8,0-1.4,0.6-1.4,1.4v12.1c0,0.8,0.6,1.4,1.4,1.4
		h10.9c5.8,0,7.9-3.5,7.9-7.4C208,21.9,205.9,18.6,200.1,18.6z"/>
	<path d="M226,33.6c0-16.1,13.6-29.2,29.8-29.2c16.4,0,29.8,13.1,29.8,29.2s-13.4,29.2-29.8,29.2C239.6,62.8,226,49.7,226,33.6z
		 M240.5,33.6c0,8.5,6.8,15.3,15.3,15.3c8.6,0,15.3-6.8,15.3-15.3s-6.6-15.3-15.3-15.3C247.3,18.3,240.5,25.1,240.5,33.6z"/>
	<path d="M305.7,7.1c0.4-0.9,1.4-1.6,2.4-1.6h10.8c1,0,2,0.6,2.4,1.6l21.4,53c0.3,0.7-0.2,1.6-1.1,1.6h-12.2c-1,0-1.9-0.6-2.3-1.6
		l-2-5.3c-0.3-0.8-1.1-1.4-1.9-1.4h-19.2c-0.9,0-1.7,0.6-1.9,1.4l-2,5.3c-0.4,0.9-1.3,1.6-2.3,1.6h-12.2c-0.9,0-1.4-0.9-1.1-1.6
		L305.7,7.1z M318.2,40.4c0.7,0,1.2-0.7,0.9-1.4L314,25.3c-0.1-0.5-0.9-0.5-1,0l-5.2,13.8c-0.2,0.6,0.2,1.4,0.9,1.4H318.2z"/>
	<path d="M362,60c0,0.9-0.8,1.7-1.7,1.7h-10.9c-0.9,0-1.7-0.8-1.7-1.7V7.2c0-0.9,0.8-1.7,1.7-1.7h8.8c1.1,0,2.2,0.5,2.8,1.4
		l23.1,28.9c0.3,0.4,0.9,0.2,0.9-0.3V7.2c0-0.9,0.8-1.7,1.7-1.7h10.9c0.9,0,1.7,0.8,1.7,1.7V60c0,0.9-0.8,1.7-1.7,1.7h-8.7
		c-1.1,0-2.2-0.5-2.8-1.4l-23.1-28.8c-0.3-0.4-0.9-0.2-0.9,0.3V60z"/>
</g>
</svg>
